# File created by Blade
# Date/Time:  Wed Jan 21 14:28:11 2015
# Frame Rate: 120.000 fps
#------------------------------------------------------
:FULLY-SPECIFIED
:DEGREES
793
root 18.705550 35.464935 -21.387424 -170.870977 -3.611788 -178.966657
Spine -18.276847 -0.496897 0.959981
Head 7.339511 -3.422429 0.886853
LeftShoulder -11.880205 -36.544049 23.242386
LeftArm 4.744933 7.343503 -5.787380
LeftForeArm 16.113388 -0.000000 -2.180415
LeftHand -8.034633 -0.000000 -8.434151
LeftHandThumb1 -26.253704 0.000000 33.147579
RightShoulder -11.440391 -0.119218 -13.713888
RightArm 8.764662 34.360960 7.099803
RightForeArm -40.424857 -0.000000 4.748535
RightHand -7.305710 -0.000000 13.570356
RightHandThumb1 -24.326973 -0.000000 -32.862282
LeftUpLeg -0.600395 8.447881 1.788109
LeftLeg -7.165429 -0.000000 0.000000
LeftFoot -19.713829 26.959346 -12.008248
LeftToeBase 27.292789 -0.000000 -0.000000
RightUpLeg -1.712373 -13.072328 -0.146963
RightLeg -4.222593 -0.000000 0.000000
RightFoot -20.060550 -22.488664 16.222874
RightToeBase 25.378796 -0.000000 -0.000000
794
root 18.704492 35.465911 -21.385380 -170.876378 -3.605024 -178.965149
Spine -18.281949 -0.482255 0.966861
Head 7.373830 -3.357356 0.875727
LeftShoulder -11.878635 -36.566934 23.232133
LeftArm 4.740092 7.262473 -5.778906
LeftForeArm 16.125335 0.000000 -2.188976
LeftHand -8.054231 -0.000000 -8.433219
LeftHandThumb1 -26.253704 0.000000 33.147579
RightShoulder -11.444747 -0.098377 -13.720519
RightArm 8.766418 34.335004 7.109053
RightForeArm -40.407188 -0.000000 4.725725
RightHand -7.257345 -0.000000 13.513015
RightHandThumb1 -24.326973 -0.000000 -32.862282
LeftUpLeg -0.595837 8.461316 1.787278
LeftLeg -7.167092 -0.000000 0.000000
LeftFoot -19.708360 26.945601 -11.997134
LeftToeBase 27.346407 -0.000000 -0.000000
RightUpLeg -1.713107 -13.087364 -0.147098
RightLeg -4.220521 -0.000000 0.000000
RightFoot -20.045576 -22.458605 16.225035
RightToeBase 25.359136 -0.000000 -0.000000
795
root 18.703070 35.466081 -21.383680 -170.880918 -3.605099 -178.972083
Spine -18.291032 -0.489530 0.967884
Head 7.401971 -3.303800 0.864865
LeftShoulder -11.875857 -36.570126 23.234445
LeftArm 4.716641 7.218294 -5.778384
LeftForeArm 16.108677 0.000000 -2.183590
LeftHand -8.115065 -0.000000 -8.431849
LeftHandThumb1 -26.253704 0.000000 33.147579
RightShoulder -11.437271 -0.097346 -13.730850
RightArm 8.784122 34.338689 7.145132
RightForeArm -40.366170 0.000000 4.696620
RightHand -7.296684 -0.000000 13.425651
RightHandThumb1 -24.326973 -0.000000 -32.862282
LeftUpLeg -0.603567 8.497220 1.776116
LeftLeg -7.149681 -0.000000 0.000000
LeftFoot -19.700693 26.912459 -11.986588
LeftToeBase 27.310070 -0.000000 -0.000000
RightUpLeg -1.710756 -13.099396 -0.155484
RightLeg -4.222167 -0.000000 0.000000
RightFoot -20.037720 -22.463871 16.194812
RightToeBase 25.379064 -0.000000 -0.000000
796
root 18.702791 35.466345 -21.380756 -170.874216 -3.597856 -178.965240
Spine -18.310122 -0.485021 0.978042
Head 7.424368 -3.248056 0.871546
LeftShoulder -11.883933 -36.565925 23.242985
LeftArm 4.713369 7.186078 -5.778733
LeftForeArm 16.123335 -0.000000 -2.189755
LeftHand -8.149392 0.000000 -8.415077
LeftHandThumb1 -26.253704 0.000000 33.147579
RightShoulder -11.425469 -0.091082 -13.726935
RightArm 8.772668 34.289203 7.144299
RightForeArm -40.304135 0.000000 4.721202
RightHand -7.306143 -0.000000 13.389467
RightHandThumb1 -24.326973 -0.000000 -32.862282
LeftUpLeg -0.603981 8.477125 1.780871
LeftLeg -7.169620 -0.000000 0.000000
LeftFoot -19.701508 26.938964 -11.998860
LeftToeBase 27.288067 -0.000000 -0.000000
RightUpLeg -1.730121 -13.102258 -0.147106
RightLeg -4.210961 -0.000000 0.000000
RightFoot -20.029543 -22.455063 16.209519
RightToeBase 25.363836 -0.000000 -0.000000
797
root 18.701514 35.467052 -21.378488 -170.870068 -3.590859 -178.972993
Spine -18.327849 -0.482586 0.970020
Head 7.451988 -3.205739 0.869596
LeftShoulder -11.883820 -36.562023 23.247024
LeftArm 4.704542 7.167725 -5.776546
LeftForeArm 16.172669 0.000000 -2.177688
LeftHand -8.201955 -0.000000 -8.399671
LeftHandThumb1 -26.253704 0.000000 33.147579
RightShoulder -11.409140 -0.071110 -13.695170
RightArm 8.783872 34.138923 7.068122
RightForeArm -40.174552 -0.000000 4.600584
RightHand -7.208283 -0.000000 13.361337
RightHandThumb1 -24.326973 -0.000000 -32.862282
LeftUpLeg -0.616941 8.507600 1.767077
LeftLeg -7.158186 -0.000000 0.000000
LeftFoot -19.691091 26.909334 -12.012026
LeftToeBase 27.288080 -0.000000 -0.000000
RightUpLeg -1.740551 -13.100248 -0.155985
RightLeg -4.206998 -0.000000 0.000000
RightFoot -20.033910 -22.447569 16.220530
RightToeBase 25.364664 -0.000000 -0.000000
798
root 18.700831 35.467293 -21.376672 -170.861199 -3.594027 -178.971996
Spine -18.354013 -0.483253 0.976808
Head 7.480057 -3.166289 0.870988
LeftShoulder -11.886942 -36.567771 23.263641
LeftArm 4.697122 7.236969 -5.789555
LeftForeArm 16.140946 -0.000000 -2.176911
LeftHand -8.187785 -0.000000 -8.413037
LeftHandThumb1 -26.253704 0.000000 33.147579
RightShoulder -11.417794 -0.081401 -13.703092
RightArm 8.808907 34.154646 7.120723
RightForeArm -40.330918 -0.000000 4.612445
RightHand -7.235862 0.000000 13.298545
RightHandThumb1 -24.326973 -0.000000 -32.862282
LeftUpLeg -0.631018 8.514575 1.764891
LeftLeg -7.156077 -0.000000 0.000000
LeftFoot -19.685162 26.902671 -12.003113
LeftToeBase 27.285395 -0.000000 -0.000000
RightUpLeg -1.750501 -13.100069 -0.152845
RightLeg -4.206924 -0.000000 0.000000
RightFoot -20.024013 -22.446617 16.278132
RightToeBase 25.224227 -0.000000 -0.000000
799
root 18.700511 35.467776 -21.374767 -170.863957 -3.591643 -178.973784
Spine -18.366538 -0.486031 0.982164
Head 7.516808 -3.102818 0.856334
LeftShoulder -11.877230 -36.584661 23.254415
LeftArm 4.680696 7.283831 -5.767535
LeftForeArm 16.138493 -0.000000 -2.164001
LeftHand -8.193146 -0.000000 -8.419126
LeftHandThumb1 -26.253704 0.000000 33.147579
RightShoulder -11.395703 -0.087044 -13.699747
RightArm 8.785646 34.193248 7.117896
RightForeArm -40.414130 -0.000000 4.606840
RightHand -7.228880 0.000000 13.295586
RightHandThumb1 -24.326973 -0.000000 -32.862282
LeftUpLeg -0.628823 8.517976 1.761845
LeftLeg -7.158476 -0.000000 0.000000
LeftFoot -19.675540 26.901719 -12.000383
LeftToeBase 27.290928 -0.000000 -0.000000
RightUpLeg -1.752104 -13.095403 -0.156860
RightLeg -4.206448 -0.000000 0.000000
RightFoot -20.026663 -22.458480 16.209436
RightToeBase 25.393932 -0.000000 -0.000000
